<svg xmlns="http://www.w3.org/2000/svg" viewBox="0 0 1200 630" role="img" aria-label="Illustration: fem stiliserade hus arrangerade i en cirkel runt Eneo-logotypen, sammankopplade med ljusa linjer – en symbol för gemensam styrning och samverkan mellan offentliga organisationer.">
  <defs>
    <linearGradient id="bg-light" x1="0" y1="0" x2="0" y2="1">
      <stop offset="0%" stop-color="#e3f0fb"/>
      <stop offset="55%" stop-color="#f1f7fc"/>
      <stop offset="100%" stop-color="#fbfdfe"/>
    </linearGradient>
    <radialGradient id="hub-halo" cx="50%" cy="50%" r="50%">
      <stop offset="0%" stop-color="#3a9aef" stop-opacity="0.35"/>
      <stop offset="60%" stop-color="#3a9aef" stop-opacity="0.10"/>
      <stop offset="100%" stop-color="#3a9aef" stop-opacity="0"/>
    </radialGradient>
    <radialGradient id="blob-soft" cx="50%" cy="50%" r="50%">
      <stop offset="0%" stop-color="#bdddf6" stop-opacity="0.55"/>
      <stop offset="70%" stop-color="#bdddf6" stop-opacity="0.10"/>
      <stop offset="100%" stop-color="#bdddf6" stop-opacity="0"/>
    </radialGradient>
    <radialGradient id="blob-accent" cx="50%" cy="50%" r="50%">
      <stop offset="0%" stop-color="#c5e8fb" stop-opacity="0.6"/>
      <stop offset="70%" stop-color="#c5e8fb" stop-opacity="0.10"/>
      <stop offset="100%" stop-color="#c5e8fb" stop-opacity="0"/>
    </radialGradient>
  </defs>

  <!-- Background -->
  <rect width="1200" height="630" fill="url(#bg-light)"/>

  <!-- Subtle flowing background — soft blobs and waves -->
  <g aria-hidden="true">
    <!-- Big soft blobs in opposite corners -->
    <ellipse cx="140" cy="180" rx="320" ry="220" fill="url(#blob-soft)"/>
    <ellipse cx="1080" cy="460" rx="340" ry="240" fill="url(#blob-accent)"/>
    <ellipse cx="1050" cy="120" rx="220" ry="160" fill="url(#blob-soft)" opacity="0.7"/>
    <ellipse cx="160" cy="500" rx="240" ry="170" fill="url(#blob-accent)" opacity="0.7"/>
  </g>

  <!-- Soft concentric rings around hub -->
  <g fill="none" stroke="#1a7ad4" stroke-width="1.5">
    <circle cx="600" cy="315" r="290" opacity="0.08"/>
    <circle cx="600" cy="315" r="220" opacity="0.14" stroke-dasharray="3 7"/>
    <circle cx="600" cy="315" r="150" opacity="0.18"/>
  </g>

  <!-- Hub glow -->
  <circle cx="600" cy="315" r="180" fill="url(#hub-halo)"/>

  <!-- Connection lines from hub to each house -->
  <g stroke="#1a7ad4" stroke-width="2.5" fill="none" opacity="0.65" stroke-linecap="round">
    <line x1="600" y1="315" x2="600" y2="115"/>
    <line x1="600" y1="315" x2="790" y2="253"/>
    <line x1="600" y1="315" x2="717" y2="476"/>
    <line x1="600" y1="315" x2="483" y2="476"/>
    <line x1="600" y1="315" x2="410" y2="253"/>
  </g>

  <!-- Connection dots at each house anchor -->
  <g fill="#ffffff" stroke="#1a7ad4" stroke-width="2.5">
    <circle cx="600" cy="115" r="7"/>
    <circle cx="790" cy="253" r="7"/>
    <circle cx="717" cy="476" r="7"/>
    <circle cx="483" cy="476" r="7"/>
    <circle cx="410" cy="253" r="7"/>
  </g>

  <!-- HOUSES — all in brand blue -->
  <g>
    <!-- House 1 (top) -->
    <g transform="translate(600 115)">
      <polygon points="-48,-25 0,-62 48,-25" fill="#1a7ad4" stroke="#055594" stroke-width="2" stroke-linejoin="round"/>
      <rect x="-42" y="-25" width="84" height="62" fill="#ffffff" stroke="#055594" stroke-width="2"/>
      <rect x="-30" y="-15" width="18" height="18" fill="#38bdf8"/>
      <rect x="12" y="-15" width="18" height="18" fill="#38bdf8"/>
      <rect x="-12" y="13" width="24" height="24" fill="#055594"/>
      <circle cx="6" cy="25" r="1.6" fill="#fbbf24"/>
    </g>
    <!-- House 2 (upper right) -->
    <g transform="translate(790 253)">
      <polygon points="-48,-25 0,-62 48,-25" fill="#1a7ad4" stroke="#055594" stroke-width="2" stroke-linejoin="round"/>
      <rect x="-42" y="-25" width="84" height="62" fill="#ffffff" stroke="#055594" stroke-width="2"/>
      <rect x="-30" y="-15" width="18" height="18" fill="#38bdf8"/>
      <rect x="12" y="-15" width="18" height="18" fill="#38bdf8"/>
      <rect x="-12" y="13" width="24" height="24" fill="#055594"/>
      <circle cx="6" cy="25" r="1.6" fill="#fbbf24"/>
    </g>
    <!-- House 3 (lower right) -->
    <g transform="translate(717 476)">
      <polygon points="-48,-25 0,-62 48,-25" fill="#1a7ad4" stroke="#055594" stroke-width="2" stroke-linejoin="round"/>
      <rect x="-42" y="-25" width="84" height="62" fill="#ffffff" stroke="#055594" stroke-width="2"/>
      <rect x="-30" y="-15" width="18" height="18" fill="#38bdf8"/>
      <rect x="12" y="-15" width="18" height="18" fill="#38bdf8"/>
      <rect x="-12" y="13" width="24" height="24" fill="#055594"/>
      <circle cx="6" cy="25" r="1.6" fill="#fbbf24"/>
    </g>
    <!-- House 4 (lower left) -->
    <g transform="translate(483 476)">
      <polygon points="-48,-25 0,-62 48,-25" fill="#1a7ad4" stroke="#055594" stroke-width="2" stroke-linejoin="round"/>
      <rect x="-42" y="-25" width="84" height="62" fill="#ffffff" stroke="#055594" stroke-width="2"/>
      <rect x="-30" y="-15" width="18" height="18" fill="#38bdf8"/>
      <rect x="12" y="-15" width="18" height="18" fill="#38bdf8"/>
      <rect x="-12" y="13" width="24" height="24" fill="#055594"/>
      <circle cx="6" cy="25" r="1.6" fill="#fbbf24"/>
    </g>
    <!-- House 5 (upper left) -->
    <g transform="translate(410 253)">
      <polygon points="-48,-25 0,-62 48,-25" fill="#1a7ad4" stroke="#055594" stroke-width="2" stroke-linejoin="round"/>
      <rect x="-42" y="-25" width="84" height="62" fill="#ffffff" stroke="#055594" stroke-width="2"/>
      <rect x="-30" y="-15" width="18" height="18" fill="#38bdf8"/>
      <rect x="12" y="-15" width="18" height="18" fill="#38bdf8"/>
      <rect x="-12" y="13" width="24" height="24" fill="#055594"/>
      <circle cx="6" cy="25" r="1.6" fill="#fbbf24"/>
    </g>
  </g>

  <!-- Central Eneo hub with logo -->
  <g>
    <!-- White circle background for logo contrast -->
    <circle cx="600" cy="315" r="110" fill="#ffffff" stroke="#1a7ad4" stroke-width="3"/>
    <!-- Eneo logo (viewBox 0 0 650 172 → scale 0.26, width 169, height ≈44.7) -->
    <g transform="translate(515.5 292.65) scale(0.26)" aria-hidden="true">
      <path fill="#1a7ad4" d="M 107.5,-0.5 C 114.833,-0.5 122.167,-0.5 129.5,-0.5C 176.816,9.15707 202.149,38.1571 205.5,86.5C 203.389,125.423 184.389,152.257 148.5,167C 142.419,168.71 136.419,170.21 130.5,171.5C 123.5,171.5 116.5,171.5 109.5,171.5C 93.3852,168.947 78.7185,162.781 65.5,153C 57.3188,144.986 49.3188,136.819 41.5,128.5C 61.6527,107.847 81.9861,87.3471 102.5,67C 111.582,60.8816 121.249,59.8816 131.5,64C 144.46,73.9171 146.96,86.0837 139,100.5C 131.833,107.667 124.667,114.833 117.5,122C 138.893,122.044 151.726,111.544 156,90.5C 156.442,68.8872 146.275,55.0539 125.5,49C 112.803,46.9218 101.803,50.2552 92.5,59C 86.6667,64.8333 80.8333,70.6667 75,76.5C 63.5,65 52,53.5 40.5,42C 50.2305,31.5999 60.5639,21.9333 71.5,13C 82.7423,6.20074 94.7423,1.70074 107.5,-0.5 Z"/>
      <path fill="#055594" d="M 649.5,76.5 C 649.5,82.1667 649.5,87.8333 649.5,93.5C 640.846,129.635 617.846,147.135 580.5,146C 552.923,141.09 535.59,125.09 528.5,98C 514.833,97.6667 501.167,97.3333 487.5,97C 480.994,93.8341 478.494,88.6674 480,81.5C 480.979,78.3749 482.813,75.8749 485.5,74C 498.401,72.538 511.401,72.038 524.5,72.5C 521.764,64.5453 516.764,58.3786 509.5,54C 488.763,45.1354 472.596,50.3021 461,69.5C 453.601,90.9824 459.767,107.149 479.5,118C 492.365,122.56 504.198,120.727 515,112.5C 519.225,119.939 523.725,127.272 528.5,134.5C 511.022,146.856 492.022,149.689 471.5,143C 466.51,141.335 462.01,138.835 458,135.5C 457.502,138.817 457.335,142.15 457.5,145.5C 448.833,145.5 440.167,145.5 431.5,145.5C 431.667,123.497 431.5,101.497 431,79.5C 426.715,61.265 415.215,51.265 396.5,49.5C 377.785,51.265 366.285,61.265 362,79.5C 361.5,101.497 361.333,123.497 361.5,145.5C 352.833,145.5 344.167,145.5 335.5,145.5C 335.5,129.5 335.5,113.5 335.5,97.5C 322.163,97.6666 308.829,97.4999 295.5,97C 287.991,92.8092 285.824,86.6426 289,78.5C 290.663,76.0833 292.829,74.25 295.5,73C 307.829,72.5001 320.162,72.3335 332.5,72.5C 327.027,58.2227 316.527,50.556 301,49.5C 282.085,51.1142 270.419,61.1142 266,79.5C 264.719,101.205 274.553,114.705 295.5,120C 303.532,121.06 311.032,119.56 318,115.5C 318.667,124.833 318.667,134.167 318,143.5C 289.265,150.965 266.265,142.631 249,118.5C 233.274,88.8088 237.108,61.9755 260.5,38C 285.142,19.8768 310.476,18.8768 336.5,35C 340.981,38.3143 344.981,42.1476 348.5,46.5C 369.825,23.1077 395.158,17.6077 424.5,30C 432.127,34.3166 438.794,39.8166 444.5,46.5C 465.825,23.1077 491.158,17.6077 520.5,30C 528.127,34.3166 534.794,39.8166 540.5,46.5C 561.825,23.1077 587.158,17.6077 616.5,30C 634.762,40.3615 645.762,55.8615 649.5,76.5 Z M 583.5,49.5 C 610.442,49.9416 623.609,63.6083 623,90.5C 619.82,107.013 609.987,116.846 593.5,120C 572.335,120.831 559.169,110.998 554,90.5C 552.92,68.7752 562.753,55.1085 583.5,49.5 Z"/>
      <path fill="#1a7ad4" d="M -0.5,87.5 C -0.5,85.8333 -0.5,84.1667 -0.5,82.5C 10.1734,71.9931 21.0067,61.6598 32,51.5C 43.9725,62.3055 55.4725,73.6388 66.5,85.5C 55.5,97.1667 44.1667,108.5 32.5,119.5C 21.4793,108.812 10.4793,98.1453 -0.5,87.5 Z"/>
    </g>
  </g>
</svg>
